# xmcd
#
# Track frame offsets: 
#        150
#        16084
#        28930
#        42912
#        59661
#        74392
#        91877
#        105420
#        121177
#        133541
#
# Disc length: 2067 seconds
#
# Revision: 0
# Processed by: cddbd v1.5.2PL0 Copyright (c) Steve Scherf et al.
# Submitted via: ExactAudioCopy v1.3
#
DISCID=8008110a
DTITLE=Fenton Robinson - Monday Morning Boogie and Blues
DYEAR=1972
DGENRE=Blues
TTITLE0=The Sky Is Crying
TTITLE1=Smokestack Lightning
TTITLE2=Little Red Rooster
TTITLE3=Somebody Loan Me A Dime
TTITLE4=Moanin' For My Baby
TTITLE5=Little Turch
TTITLE6=Don't Start Me Talking
TTITLE7=Let Me Come On Back Home
TTITLE8=Stormy Monday
TTITLE9=Give You Some Air
EXTD=
EXTT0=
EXTT1=
EXTT2=
EXTT3=
EXTT4=
EXTT5=
EXTT6=
EXTT7=
EXTT8=
EXTT9=
PLAYORDER=
